<svg width="24" height="24" viewBox="0 0 24 24" fill="none" xmlns="http://www.w3.org/2000/svg">
<path fill-rule="evenodd" clip-rule="evenodd" d="M4.21818 19.7832C8.50794 24.0716 15.4934 24.073 19.7832 19.7832C24.073 15.4921 24.0716 8.50794 19.7832 4.2168C15.4934 -0.0715743 8.50931 -0.0729528 4.21818 4.2168C-0.0729566 8.50932 -0.0715772 15.4921 4.21818 19.7832V19.7832ZM18.0885 5.91147C21.4517 9.27323 21.4544 14.7406 18.0982 18.0968C14.7419 21.4544 9.2746 21.4503 5.91147 18.0885C2.54971 14.7268 2.54833 9.25806 5.90319 5.90182C9.26219 2.54558 14.7282 2.54971 18.0885 5.91147Z" fill="#424242"/>
<path d="M8 11.9475L10.9647 15.0001L16 9.96484" stroke="#424242" stroke-width="2.4" stroke-miterlimit="10" stroke-linecap="round" stroke-linejoin="round"/>
</svg>
