<svg width="24" height="24" viewBox="0 0 24 24" fill="none" xmlns="http://www.w3.org/2000/svg">
<path fill-rule="evenodd" clip-rule="evenodd" d="M4.21818 19.7832C8.50794 24.0716 15.4934 24.073 19.7832 19.7832C24.073 15.4921 24.0716 8.50794 19.7832 4.2168C15.4934 -0.0715745 8.50931 -0.0729529 4.21818 4.2168C-0.0729574 8.50932 -0.0715782 15.4921 4.21818 19.7832ZM18.0885 5.91147C21.4517 9.27323 21.4544 14.7406 18.0982 18.0968C14.7419 21.4544 9.2746 21.4503 5.91147 18.0885C2.54971 14.7268 2.54833 9.25806 5.90319 5.90182C9.26219 2.54558 14.7282 2.54971 18.0885 5.91147Z" fill="#78C218"/>
<path fill-rule="evenodd" clip-rule="evenodd" d="M12 23C18.0751 23 23 18.0751 23 12C23 5.92487 18.0751 1 12 1C5.92487 1 1 5.92487 1 12C1 18.0751 5.92487 23 12 23ZM17.4868 10.4931C18.0353 9.94812 18.0381 9.06169 17.4931 8.51321C16.9481 7.96474 16.0617 7.96191 15.5132 8.5069L10.9824 13.0089L9.0043 10.9721C8.46562 10.4174 7.57928 10.4045 7.02462 10.9432C6.46995 11.4819 6.45701 12.3682 6.9957 12.9229L9.9604 15.9755C10.221 16.2438 10.5782 16.3967 10.9523 16.4C11.3263 16.4034 11.6861 16.2569 11.9515 15.9932L17.4868 10.4931Z" fill="#78C218"/>
</svg>
