<svg width="24" height="24" viewBox="0 0 24 24" fill="none" xmlns="http://www.w3.org/2000/svg">
<path fill-rule="evenodd" clip-rule="evenodd" d="M4.21745 19.7832C8.50721 24.0716 15.4927 24.073 19.7825 19.7832C24.0722 15.4921 24.0708 8.50794 19.7825 4.2168C15.4927 -0.0715743 8.50858 -0.0729528 4.21745 4.2168C-0.0736891 8.50932 -0.0723097 15.4921 4.21745 19.7832V19.7832ZM18.0878 5.91147C21.4509 9.27323 21.4537 14.7406 18.0975 18.0968C14.7412 21.4544 9.27387 21.4503 5.91074 18.0885C2.54898 14.7268 2.5476 9.25806 5.90246 5.90182C9.26146 2.54558 14.7274 2.54971 18.0878 5.91147Z" fill="#FF8E25"/>
<path fill-rule="evenodd" clip-rule="evenodd" d="M10.8992 16.4519C10.8992 15.8732 11.3917 15.4041 11.9992 15.4041C12.6068 15.4041 13.0992 15.8732 13.0992 16.4519C13.0992 17.0306 12.6068 17.4998 11.9992 17.4998C11.3917 17.4998 10.8992 17.0306 10.8992 16.4519ZM12.7774 13.5274C12.5711 13.7239 12.2913 13.8343 11.9996 13.8343C11.7079 13.8343 11.4281 13.7239 11.2218 13.5274C11.0155 13.3309 10.8996 13.0644 10.8996 12.7865L10.8996 7.5473C10.8996 7.2694 11.0155 7.00287 11.2218 6.80637C11.4281 6.60986 11.7079 6.49946 11.9996 6.49946C12.2913 6.49946 12.5711 6.60986 12.7774 6.80637C12.9837 7.00287 13.0996 7.2694 13.0996 7.5473L13.0996 12.7865C13.0996 13.0644 12.9837 13.3309 12.7774 13.5274Z" fill="#FF8E25"/>
</svg>
