<svg width="24" height="24" viewBox="0 0 24 24" fill="none" xmlns="http://www.w3.org/2000/svg">
<g clip-path="url(#clip0_1010:3864)">
<path fill-rule="evenodd" clip-rule="evenodd" d="M3.51018 20.4912C8.19005 25.1695 15.8108 25.171 20.4907 20.4912C25.1705 15.8098 25.169 8.19053 20.4907 3.50917C15.8108 -1.16919 8.19155 -1.17069 3.51018 3.50917C-1.17118 8.19204 -1.16968 15.8098 3.51018 20.4912V20.4912ZM18.6419 5.35795C22.3109 9.02542 22.3139 14.9899 18.6524 18.6514C14.991 22.3144 9.02643 22.3099 5.35746 18.6424C1.68999 14.9749 1.68848 9.00887 5.34843 5.34742C9.01289 1.68596 14.9759 1.69048 18.6419 5.35795Z" fill="white"/>
<path fill-rule="evenodd" clip-rule="evenodd" d="M10.7995 16.8571C10.7995 16.2258 11.3368 15.714 11.9996 15.714C12.6623 15.714 13.1996 16.2258 13.1996 16.8571C13.1996 17.4884 12.6623 18.0002 11.9996 18.0002C11.3368 18.0002 10.7995 17.4884 10.7995 16.8571ZM12.8485 13.6669C12.6234 13.8812 12.3182 14.0017 11.9999 14.0017C11.6816 14.0017 11.3764 13.8812 11.1514 13.6669C10.9263 13.4525 10.7999 13.1617 10.7999 12.8586L10.7999 7.14292C10.7999 6.83975 10.9263 6.54899 11.1514 6.33461C11.3764 6.12023 11.6816 5.9998 11.9999 5.9998C12.3182 5.9998 12.6234 6.12023 12.8485 6.33461C13.0735 6.54899 13.2 6.83975 13.2 7.14292L13.2 12.8586C13.2 13.1617 13.0735 13.4525 12.8485 13.6669Z" fill="white"/>
</g>
<defs>
<clipPath id="clip0_1010:3864">
<rect width="24" height="24" fill="white"/>
</clipPath>
</defs>
</svg>
