<svg width="24" height="24" viewBox="0 0 24 24" fill="none" xmlns="http://www.w3.org/2000/svg">
<g clip-path="url(#clip0_1010:3873)">
<path fill-rule="evenodd" clip-rule="evenodd" d="M3.51018 20.4914C8.19005 25.1698 15.8108 25.1713 20.4907 20.4914C25.1705 15.81 25.169 8.19078 20.4907 3.50941C15.8108 -1.16894 8.19155 -1.17045 3.51018 3.50941C-1.17118 8.19229 -1.16968 15.81 3.51018 20.4914V20.4914ZM18.6419 5.35819C22.3109 9.02566 22.3139 14.9902 18.6524 18.6516C14.991 22.3146 9.02643 22.3101 5.35746 18.6426C1.68999 14.9752 1.68848 9.00912 5.34843 5.34766C9.01289 1.68621 14.9759 1.69072 18.6419 5.35819Z" fill="#FF8E25"/>
<path fill-rule="evenodd" clip-rule="evenodd" d="M10.7996 16.8571C10.7996 16.2258 11.3368 15.714 11.9996 15.714C12.6623 15.714 13.1996 16.2258 13.1996 16.8571C13.1996 17.4884 12.6623 18.0002 11.9996 18.0002C11.3368 18.0002 10.7996 17.4884 10.7996 16.8571ZM12.8485 13.6667C12.6234 13.8811 12.3182 14.0015 11.9999 14.0015C11.6816 14.0015 11.3764 13.8811 11.1514 13.6667C10.9263 13.4524 10.7999 13.1616 10.7999 12.8584L10.7999 7.14279C10.7999 6.83961 10.9263 6.54885 11.1514 6.33447C11.3764 6.12009 11.6816 5.99966 11.9999 5.99966C12.3182 5.99966 12.6234 6.12009 12.8485 6.33447C13.0735 6.54885 13.2 6.83961 13.2 7.14279L13.2 12.8584C13.2 13.1616 13.0735 13.4524 12.8485 13.6667Z" fill="#FF8E25"/>
</g>
<defs>
<clipPath id="clip0_1010:3873">
<rect width="24" height="24" fill="white"/>
</clipPath>
</defs>
</svg>
