<svg width="24" height="24" viewBox="0 0 24 24" fill="none" xmlns="http://www.w3.org/2000/svg">
<g clip-path="url(#clip0_1010:3862)">
<path fill-rule="evenodd" clip-rule="evenodd" d="M20.4907 20.4911C15.8108 25.1709 8.19008 25.1694 3.51022 20.4911C-1.16965 15.8097 -1.17115 8.19196 3.51022 3.50909C8.19158 -1.17077 15.8108 -1.16927 20.4907 3.50909C25.1691 8.19045 25.1706 15.8097 20.4907 20.4911ZM17.6095 4.46398L4.46383 17.6096C1.71887 13.9291 2.01488 8.68229 5.34847 5.34734C8.68609 2.01245 13.9306 1.71875 17.6095 4.46398ZM19.5814 6.45186C22.2789 10.1289 21.9689 15.3349 18.6525 18.6513C15.336 21.9692 10.13 22.2781 6.45185 19.5814L19.5814 6.45186Z" fill="white"/>
</g>
<defs>
<clipPath id="clip0_1010:3862">
<rect width="24" height="24" fill="white"/>
</clipPath>
</defs>
</svg>
