<svg width="24" height="24" viewBox="0 0 24 24" fill="none" xmlns="http://www.w3.org/2000/svg">
<path fill-rule="evenodd" clip-rule="evenodd" d="M19.7826 19.783C15.4928 24.0728 8.50732 24.0714 4.21756 19.783C-0.0721972 15.4919 -0.0735766 8.50915 4.21756 4.21663C8.5087 -0.0731264 15.4928 -0.0717479 19.7826 4.21663C24.071 8.50777 24.0723 15.4919 19.7826 19.783ZM17.1415 5.09192L5.09168 17.1418C2.57553 13.7681 2.84687 8.9586 5.90258 5.90165C8.96199 2.84475 13.7693 2.57553 17.1415 5.09192ZM18.9491 6.9141C21.4217 10.2846 21.1376 15.0566 18.0976 18.0966C15.0575 21.1379 10.2855 21.4211 6.91398 18.9492L18.9491 6.9141Z" fill="#DD2B0E"/>
</svg>
