<svg width="24" height="24" viewBox="0 0 24 24" fill="none" xmlns="http://www.w3.org/2000/svg">
<path d="M13.5554 12L16.6673 8.8892C16.7695 8.787 16.8506 8.66567 16.9059 8.53214C16.9612 8.3986 16.9897 8.25549 16.9897 8.11095C16.9897 7.96642 16.9612 7.8233 16.9059 7.68976C16.8506 7.55623 16.7695 7.4349 16.6673 7.3327C16.5651 7.2305 16.4438 7.14943 16.3102 7.09412C16.1767 7.03881 16.0336 7.01034 15.889 7.01034C15.7445 7.01034 15.6014 7.03881 15.4679 7.09412C15.3343 7.14943 15.213 7.2305 15.1108 7.3327L12 10.4446L8.8892 7.3327C8.6828 7.1263 8.40285 7.01034 8.11095 7.01034C7.81905 7.01034 7.5391 7.1263 7.3327 7.3327C7.1263 7.5391 7.01034 7.81905 7.01034 8.11095C7.01034 8.25549 7.03881 8.3986 7.09412 8.53214C7.14943 8.66567 7.2305 8.787 7.3327 8.8892L10.4446 12L7.3327 15.1108C7.1263 15.3172 7.01034 15.5971 7.01034 15.889C7.01034 16.181 7.1263 16.4609 7.3327 16.6673C7.5391 16.8737 7.81905 16.9897 8.11095 16.9897C8.40285 16.9897 8.6828 16.8737 8.8892 16.6673L12 13.5554L15.1108 16.6673C15.3172 16.8737 15.5971 16.9897 15.889 16.9897C16.181 16.9897 16.4609 16.8737 16.6673 16.6673C16.8737 16.4609 16.9897 16.181 16.9897 15.889C16.9897 15.5971 16.8737 15.3172 16.6673 15.1108L13.5554 12ZM12 23C5.9247 23 1 18.0753 1 12C1 5.9247 5.9247 1 12 1C18.0753 1 23 5.9247 23 12C23 18.0753 18.0753 23 12 23Z" fill="#DD2B0E"/>
</svg>
