<svg width="96" height="96" viewBox="0 0 96 96" fill="none" xmlns="http://www.w3.org/2000/svg">
<path d="M60.4008 2.24637C56.5384 1.24478 52.5634 0.741907 48.573 0.750098C36.3372 0.757931 24.5802 5.49977 15.7704 13.9801C9.59438 11.7887 4.30528 7.64041 0.709641 2.1676C0.712618 5.70817 1.61929 9.18952 3.3439 12.2829C5.06852 15.3763 7.55415 17.9796 10.5662 19.847C8.35484 20.0428 6.13846 19.53 4.23859 18.383C2.33873 17.2361 0.854191 15.5146 0 13.4682C0.616714 18.3057 3.05563 22.7268 6.82064 25.8319C5.08973 29.1247 3.76582 32.6152 2.87803 36.2269C-0.234964 48.3559 1.59991 61.2231 7.97955 72.002C14.3592 82.7809 24.7619 90.5901 36.9028 93.7144C40.7636 94.7284 44.7385 95.2445 48.7306 95.25C59.2132 95.2422 69.3966 91.7577 77.6815 85.3437C85.9663 78.9296 91.8835 69.9492 94.5042 59.8125C96.056 53.7962 96.4047 47.5332 95.53 41.3821C94.6554 35.2311 92.5747 29.3127 89.407 23.9657C86.2393 18.6187 82.0468 13.9481 77.0695 10.2212C72.0923 6.49433 66.428 3.78435 60.4008 2.24637ZM86.6979 49.7719C86.1424 60.7049 81.3827 71.0017 73.4113 78.5156C69.2148 82.4734 64.2515 85.5317 58.8273 87.5022C53.403 89.4727 47.6324 90.3138 41.8705 89.9738L38.7951 89.6981L37.8884 89.4619C31.667 87.8892 25.884 84.9274 20.9747 80.7994C27.1681 84.3738 34.3091 85.9678 41.4368 85.3669C46.0863 84.9421 50.606 83.605 54.7371 81.4324C58.8682 79.2597 62.5293 76.2942 65.5107 72.7058C68.4921 69.1174 70.7352 64.9767 72.1112 60.521C73.4872 56.0653 73.9691 51.3821 73.5295 46.74C72.7325 38.6288 69.1203 31.0515 63.3183 25.3201C66.376 29.7434 68.2242 34.8874 68.6802 40.2432C68.9258 43.0307 68.7933 45.8386 68.286 48.5906V48.8269C67.5186 47.4329 66.6207 46.1146 65.6048 44.8894C66.527 47.8321 66.7031 50.9576 66.1174 53.9851C65.7272 55.8255 65.0488 57.5929 64.1068 59.2219C61.9969 62.6295 59.205 65.5651 55.9062 67.845C56.3148 66.4869 56.5662 65.0865 56.6553 63.6713C55.1306 66.3851 52.948 68.6732 50.3077 70.3256C49.0702 71.0939 47.7471 71.715 46.3651 72.1763C42.1308 73.2915 37.703 73.4662 33.3938 72.6882C34.7073 71.9891 35.9373 71.1437 37.0604 70.1682C34.0667 71.016 30.9077 71.0972 27.8743 70.4044C26.0366 69.9975 24.2694 69.3208 22.6305 68.3962V68.3962C18.1763 65.5203 14.5698 61.5109 12.1825 56.7806C13.7188 57.3999 15.3187 57.8489 16.9532 58.1194C14.5436 56.2278 12.646 53.7643 11.4334 50.9532C11.4334 50.9532 11.4336 50.52 11.1182 50.3232C10.3786 48.1827 10.0053 45.9331 10.0141 43.6688V43.6688C9.77497 39.9886 10.257 36.2971 11.4334 32.8013L12.5375 29.4151H12.7345C12.7688 30.0911 12.8611 30.7629 13.0106 31.4232C13.5297 33.3507 14.5629 35.1013 16.0002 36.4882C17.4376 37.8751 19.2251 38.8463 21.1718 39.2982C23.7311 37.7299 26.6855 36.924 29.6877 36.975C31.5963 37.0362 33.4788 37.4362 35.2469 38.1563V38.1563C38.6296 39.4961 41.7218 41.4747 44.3543 43.9838C45.1908 44.9685 45.8036 46.1225 46.1507 47.3664C46.4978 48.6103 46.571 49.9146 46.3651 51.1894C48.5454 49.2708 50.1198 46.7604 50.8968 43.964C51.6738 41.1675 51.6199 38.2057 50.7413 35.4394C47.7663 35.7078 44.7999 34.8421 42.4377 33.0162C40.0754 31.1902 38.4923 28.5392 38.0066 25.5957C38.0066 25.5957 34.8132 17.5238 21.1323 15.0038L22.4334 13.9801C29.0427 8.94063 36.9705 5.91848 45.2611 5.27819C46.2143 5.34049 47.1426 5.60925 47.9815 6.06574C49.1497 6.63962 50.0829 7.59951 50.623 8.78256C50.7223 8.32854 50.7223 7.8585 50.623 7.40448C50.5751 6.78026 50.3571 6.18105 49.9922 5.67197C51.9372 5.92513 53.8609 6.31995 55.7483 6.85323C57.0195 7.20819 58.1875 7.86156 59.1545 8.75883C60.1215 9.6561 60.8597 10.7713 61.3075 12.0113C61.5142 12.6233 61.6464 13.2578 61.7017 13.9013C62.0175 13.2558 62.2305 12.565 62.3326 11.8538C62.4936 11.0083 62.4936 10.14 62.3326 9.29446C64.5018 10.2963 66.5739 11.4957 68.5225 12.8776V12.8776H68.7591C70.029 13.7763 71.0762 14.9531 71.821 16.318C72.5658 17.6828 72.9884 19.1997 73.0564 20.7526C73.1058 21.641 73.0126 22.5316 72.7804 23.3907C73.4083 22.7728 73.9281 22.054 74.3181 21.2644C74.7352 20.3968 75.0018 19.4649 75.1066 18.5082L75.7768 19.217C79.5343 23.3328 82.435 28.1536 84.3098 33.3992C86.1847 38.6447 86.9964 44.2102 86.6979 49.7719Z" fill="white"/>
<path d="M35.2789 41.6729C33.4817 40.6295 31.4506 40.055 29.3727 40.0023C27.5259 39.9676 25.6933 40.3313 24 41.0686C24.7119 41.2681 25.4127 41.5055 26.0993 41.7796L26.5263 41.9573C27.03 42.1704 27.5175 42.4199 27.985 42.7038C30.4756 44.1612 31.543 45.903 30.4044 47.8581C30.1693 48.2604 29.8686 48.6208 29.5149 48.9245C29.3755 49.0602 29.2709 49.2274 29.21 49.4121C29.1491 49.5968 29.1338 49.7935 29.1653 49.9853C29.1967 50.1772 29.2741 50.3587 29.3907 50.5144C29.5073 50.6701 29.6598 50.7953 29.8352 50.8795C32.1643 52.0263 34.8269 52.3036 37.3426 51.6616C38.7798 51.2774 40.1317 50.6261 41.3276 49.742C41.99 49.2577 42.5571 48.6551 43 47.9647C42.1934 47.9494 41.3919 47.8299 40.616 47.6093C37.1291 46.7206 36.2396 44.1967 35.2789 41.6729Z" fill="white"/>
</svg>
