<svg width="96" height="96" viewBox="0 0 96 96" fill="none" xmlns="http://www.w3.org/2000/svg">
<path d="M60.6202 2.59303C56.6986 1.57345 52.6615 1.05649 48.6074 1.05481C36.9034 1.07201 25.6193 5.38227 16.9269 13.156C5.4041 9.33786 0.718341 1 0.718341 1C0.718341 13.1779 10.5909 18.6111 10.5909 18.6111C1.9745 18.5051 0 12.2682 0 12.2682C1.08671 18.2347 3.54379 22.0492 7.4007 24.9832C5.23994 28.8039 3.62805 32.9053 2.6118 37.1685C-3.4296 62.3355 12.4364 87.7985 37.825 93.7395C41.3922 94.5755 45.0451 94.9985 48.7106 95C59.2672 94.9833 69.5156 91.4693 77.8287 85.0159C86.1418 78.5624 92.0431 69.5395 94.5957 59.3796C100.851 34.5268 85.622 9.06017 60.6202 2.59303ZM84.0011 57.5893C82.7221 62.8186 80.4084 67.7439 77.1944 72.079C73.9803 76.4142 69.93 80.0729 65.2786 82.8426C60.6272 85.6123 55.4674 87.4379 50.0987 88.2134C44.7301 88.9889 39.2596 88.6988 34.0049 87.36H33.9386C29.7488 86.2763 25.823 84.3636 22.3974 81.7369C18.0975 78.4263 14.472 74.3344 11.7144 69.6795C9.626 66.191 8.04946 62.4251 7.03233 58.4954C9.64884 65.9341 14.7307 72.2733 21.448 76.4779C28.1654 80.6826 36.1216 82.5043 44.0174 81.6456C62.9005 79.5958 76.8214 62.7557 75.1601 43.99C74.4342 35.6762 70.7106 27.9006 64.6724 22.0894C67.7476 26.4886 69.5432 31.6421 69.8628 36.9858C70.295 44.4447 67.8459 51.7867 63.0138 57.5181C58.1817 63.2496 51.3296 66.9398 43.8517 67.838C39.9401 68.296 35.9757 67.9734 32.1917 66.8892C28.4077 65.8049 24.8806 63.981 21.8178 61.5247C18.7551 59.0684 16.2186 56.0293 14.3576 52.5863C12.4966 49.1433 11.3486 45.3658 10.9813 41.4762C10.5517 36.9758 11.1823 32.4379 12.8232 28.2204V28.2204C12.8517 28.8863 12.9492 29.5474 13.1142 30.1935C14.0868 33.986 17.6379 37.1356 21.2738 37.8298C23.8302 36.2672 26.7887 35.4739 29.7907 35.5462C31.7092 35.589 33.603 35.9855 35.3753 36.7154C38.8307 38.2354 42.3745 40.212 44.4705 42.5285C47.307 45.6525 46.4892 49.6826 46.4892 49.6826C54.0926 42.4956 50.8692 34.0957 50.8692 34.0957C39.5306 34.3112 38.1234 24.3219 38.1234 24.3219C38.1234 24.3219 35.1764 16.8609 22.7363 14.0914L22.7841 14.0548C25.9025 11.7036 29.4372 9.95253 33.2055 8.8921C40.1804 6.95774 47.5488 6.90099 54.553 8.72768C76.07 14.285 89.2542 36.1527 84.0159 57.5783L84.0011 57.5893Z" fill="white"/>
<path d="M36.5504 39.2983C34.6002 38.1915 32.4018 37.5861 30.1554 37.5372C28.1636 37.4889 26.1857 37.8795 24.3645 38.6808C25.1355 38.8826 25.8913 39.1377 26.6263 39.4445L27.0463 39.6198C27.5742 39.8317 28.0885 40.0758 28.5861 40.3506C31.5037 42.0313 32.4835 44.0884 31.0395 46.3464C30.859 46.5984 30.6432 46.8236 30.3985 47.015C30.2318 47.1557 30.1029 47.3352 30.0234 47.5374C29.9438 47.7397 29.9162 47.9584 29.9428 48.1738C29.9695 48.3893 30.0496 48.5948 30.1761 48.772C30.3026 48.9492 30.4714 49.0925 30.6674 49.189C33.1859 50.4053 36.0578 50.6953 38.7717 50.0074C40.3225 49.6163 41.7773 48.9178 43.0486 47.954C43.7836 47.4438 44.4096 46.7944 44.8905 46.0431C44.0203 46.013 43.1558 45.8905 42.3119 45.6778C38.5544 44.7278 37.5672 42.0204 36.5504 39.2983Z" fill="white"/>
</svg>
